<svg preserveAspectRatio="none" width="100%" height="100%" overflow="visible" style="display: block;" viewBox="0 0 24 24" fill="none" xmlns="http://www.w3.org/2000/svg">
<g id="mage:direction-up-2">
<path id="Vector" d="M12.052 10.595V17.319M10.884 17.608L6.28 20.81C5.88188 21.0327 5.4236 21.124 4.97053 21.0709C4.51745 21.0178 4.0927 20.823 3.75685 20.5143C3.42099 20.2056 3.19117 19.7988 3.10016 19.3518C3.00914 18.9048 3.06158 18.4404 3.25 18.025L9.946 4.001C10.1199 3.62725 10.397 3.31095 10.7445 3.08931C11.0921 2.86768 11.4958 2.74994 11.908 2.74994C12.3202 2.74994 12.7239 2.86768 13.0715 3.08931C13.419 3.31095 13.6961 3.62725 13.87 4.001L20.767 18.228C20.9428 18.6345 20.9897 19.0852 20.9012 19.5192C20.8128 19.9531 20.5933 20.3495 20.2724 20.6548C19.9515 20.9601 19.5447 21.1596 19.1069 21.2263C18.669 21.293 18.2213 21.2238 17.824 21.028L13.062 17.608C12.734 17.4078 12.3572 17.3019 11.973 17.3019C11.5888 17.3019 11.212 17.4078 10.884 17.608Z" stroke="var(--stroke-0, #697586)" stroke-width="1.5" stroke-linecap="round" stroke-linejoin="round"/>
</g>
</svg>
